<?xml version="1.0" encoding="iso-8859-1"?>
<!-- Generator: Adobe Illustrator 19.0.0, SVG Export Plug-In . SVG Version: 6.00 Build 0)  -->
<svg version="1.1" id="Capa_1" xmlns="http://www.w3.org/2000/svg" xmlns:xlink="http://www.w3.org/1999/xlink" x="0px" y="0px"
	 viewBox="0 0 512.001 512.001" style="enable-background:new 0 0 512.001 512.001;" xml:space="preserve">
<g>
	<g>
		<path d="M502.991,377.808l-56.023-6.479c22.583-12.673,37.887-36.84,37.887-64.528v-79.949c0-5.518-4.474-9.994-9.994-9.994
			h-17.42c1.952-32.392-2.991-64.365-14.245-91.082c-13.843-32.862-35.707-55.156-63.229-64.474
			c-33.716-11.414-73.227-1.813-109.563,26.322c-21.952-21.873-47.516-33.66-73.876-33.66c-33.919,0-66.52,19.506-91.799,54.926
			c-21.53,30.168-35.38,69.048-38.67,107.97H37.14c-5.519,0-9.994,4.475-9.994,9.994v79.949c0,21.271,9.04,40.461,23.465,53.965
			H10.157c-5.519,0-9.994,4.475-9.994,9.994c0,5.518,4.474,9.994,9.994,9.994h267.828c0.529,0,4.215-0.009,5.986-0.009
			c10.505,0,30.391-1.984,43.624-15.469c6.688-6.818,10.475-15.244,12.598-23.221c0.122-0.072,0.249-0.126,0.369-0.204l61.809-40.34
			c4.622-3.017,5.923-9.209,2.907-13.831c-3.016-4.621-9.209-5.922-13.83-2.906l-48.852,31.884c-0.02-0.275-0.039-0.523-0.055-0.709
			c-0.153-2.334-1.122-4.625-2.906-6.41c-1.759-1.759-4.01-2.725-6.311-2.897c-4.608-0.472-33.449-2.645-50.383,14.609
			c-0.47,0.479-0.917,0.971-1.358,1.467c-3.375-8.945-8.385-17.736-15.805-25.017c-25.482-24.996-67.995-22.167-72.736-21.769
			c-2.21,0.131-4.392,0.993-6.153,2.602c-1.946,1.779-3.026,4.151-3.218,6.591c-0.646,6.104-4.211,49.449,21.165,74.353v-0.001
			c0.45,0.442,0.909,0.865,1.369,1.289H101.099c-29.757,0-53.965-24.209-53.965-53.965v-69.955H75.44h242.177h128.969
			c0.006,0,0.012,0.001,0.018,0.001c0.007,0,0.014-0.001,0.021-0.001h18.242v69.955c0,29.756-24.208,53.965-53.965,53.965h-22.221
			l64.636-41.931c4.63-3.004,5.949-9.193,2.945-13.823s-9.192-5.947-13.823-2.945l-92.94,60.294
			c-3.537,2.294-5.253,6.56-4.291,10.664c0.961,4.104,4.394,7.163,8.581,7.647l146.906,16.989c0.391,0.045,0.778,0.067,1.161,0.067
			c5.005,0,9.326-3.754,9.915-8.847C512.405,383.4,508.474,378.443,502.991,377.808z M297.204,335.254
			c6.616-6.741,17.636-8.527,25.38-8.878c-0.619,7.95-2.892,18.417-9.255,24.905c-6.371,6.492-16.956,8.758-24.972,9.344
			C288.781,352.499,290.835,341.745,297.204,335.254z M203.13,295.645c12.196,0.214,34.68,2.62,48.65,16.325
			c14.029,13.768,16.364,36.534,16.517,48.787c-12.402,0.073-35.484-1.822-49.461-15.541c0,0-0.001,0-0.001-0.001
			C204.883,331.522,203.017,308.207,203.13,295.645z M86.113,216.86c3.232-34.846,15.694-69.469,34.885-96.358
			c21.423-30.018,48.248-46.549,75.531-46.549c23.061,0,45.793,11.812,65.214,33.595c0.053,0.065,0.097,0.133,0.152,0.197
			c0.083,0.097,0.174,0.182,0.26,0.274c3.409,3.859,6.718,8.017,9.905,12.482c19.191,26.89,31.653,61.513,34.885,96.359H86.113z
			 M437.415,216.861H326.997c-3.29-38.922-17.139-77.801-38.67-107.97c-1.527-2.14-3.081-4.217-4.66-6.24
			c30.619-23.348,62.968-31.526,89.888-22.414c27.729,9.388,43.158,34.167,51.218,53.302
			C434.994,157.802,439.387,187.089,437.415,216.861z"/>
	</g>
</g>
<g>
	<g>
		<path d="M166.858,114.583c-3.789-4.008-10.114-4.19-14.127-0.4c-5.435,5.135-10.638,11.168-15.464,17.93
			c-10.539,14.768-19.028,32.556-24.546,51.444c-1.548,5.298,1.492,10.847,6.79,12.395c0.936,0.273,1.879,0.404,2.807,0.404
			c4.326,0,8.314-2.832,9.588-7.193c4.897-16.76,12.377-32.473,21.63-45.438c4.077-5.713,8.425-10.764,12.922-15.013
			C170.47,124.92,170.649,118.595,166.858,114.583z"/>
	</g>
</g>
<g>
	<g>
		<path d="M196.528,93.94c-0.368,0-0.737,0.005-1.105,0.014c-5.517,0.13-9.886,4.708-9.756,10.225
			c0.128,5.438,4.576,9.759,9.987,9.759c0.079,0,0.16-0.001,0.24-0.003c0.212-0.005,0.424-0.008,0.636-0.008
			c5.519,0,9.994-4.475,9.994-9.994C206.523,98.415,202.047,93.94,196.528,93.94z"/>
	</g>
</g>
<g>
	<g>
		<path d="M97.518,293.727l-15.169-15.169c-3.903-3.901-10.229-3.901-14.133,0c-3.903,3.902-3.903,10.23,0,14.134l15.169,15.169
			c1.952,1.951,4.509,2.927,7.066,2.927c2.557,0,5.116-0.976,7.067-2.927C101.421,303.958,101.421,297.63,97.518,293.727z"/>
	</g>
</g>
<g>
	<g>
		<path d="M145.308,263.593c-3.903-3.903-10.23-3.903-14.133,0l-10.161,10.16c-3.902,3.903-3.902,10.23,0,14.134
			c1.952,1.951,4.509,2.927,7.066,2.927c2.557,0,5.116-0.976,7.066-2.927l10.161-10.161
			C149.21,273.825,149.21,267.497,145.308,263.593z"/>
	</g>
</g>
<g>
	<g>
		<path d="M317.891,263.733l-5.303-5.303c-3.903-3.904-10.231-3.904-14.133,0.001c-3.903,3.902-3.903,10.229,0,14.133l5.303,5.303
			c1.952,1.951,4.509,2.927,7.066,2.927s5.116-0.976,7.066-2.928C321.794,273.963,321.794,267.637,317.891,263.733z"/>
	</g>
</g>
<g>
	<g>
		<path d="M389.812,257.258c-3.903-3.904-10.23-3.902-14.133-0.001l-3.825,3.824c-3.903,3.901-3.904,10.229,0,14.133
			c1.952,1.952,4.509,2.928,7.066,2.928s5.115-0.976,7.067-2.927l3.825-3.824C393.715,267.49,393.716,261.162,389.812,257.258z"/>
	</g>
</g>
<g>
	<g>
		<path d="M449.531,274.167l-5.495-5.494c-3.902-3.901-10.23-3.903-14.133,0.001c-3.902,3.902-3.902,10.229,0,14.133l5.495,5.494
			c1.952,1.951,4.509,2.927,7.066,2.927s5.116-0.976,7.066-2.928C453.433,284.398,453.433,278.071,449.531,274.167z"/>
	</g>
</g>
<g>
	<g>
		<path d="M256.043,0c-5.519,0-9.994,4.475-9.994,9.994V28.85c0,5.519,4.474,9.994,9.994,9.994s9.994-4.475,9.994-9.994V9.994
			C266.036,4.475,261.562,0,256.043,0z"/>
	</g>
</g>
<g>
	<g>
		<path d="M233.055,29.906l-8.13-8.122c-3.906-3.903-10.232-3.898-14.133,0.007c-3.902,3.905-3.898,10.231,0.006,14.133l8.13,8.122
			c1.952,1.95,4.507,2.924,7.063,2.924c2.559,0,5.119-0.977,7.069-2.931C236.962,40.134,236.958,33.807,233.055,29.906z"/>
	</g>
</g>
<g>
	<g>
		<path d="M301.356,21.735c-3.905-3.902-10.232-3.898-14.133,0.007l-8.067,8.075c-3.901,3.904-3.898,10.232,0.007,14.133
			c1.951,1.951,4.506,2.924,7.063,2.924c2.559,0,5.119-0.977,7.07-2.931l8.067-8.075C305.263,31.964,305.26,25.636,301.356,21.735z"
			/>
	</g>
</g>
<g>
	<g>
		<path d="M501.842,437.72h-83.643c-1.805-2.425-3.809-4.749-6.034-6.934c-24.49-24.023-65.198-21.695-70.668-21.258H295.64
			c-5.519,0-9.994,4.475-9.994,9.994c0,5.518,4.474,9.994,9.994,9.994h35.721c-0.006,2.457,0.057,5.221,0.241,8.206H10.157
			c-5.519,0-9.994,4.475-9.994,9.994c0,5.518,4.474,9.994,9.994,9.994h324.427c2.904,11.758,8.259,24.015,17.952,33.528v-0.001
			c18.317,17.978,45.898,20.767,61.242,20.767c6.424,0,10.704-0.489,11.261-0.557c3.837-0.464,7.056-3.103,8.277-6.769
			c0.344-1.033,0.511-2.098,0.511-3.152c0.424-5.725,1.147-24.832-5.345-43.816h73.36c5.519,0,9.994-4.475,9.994-9.994
			C511.835,442.196,507.362,437.72,501.842,437.72z M366.537,476.968c-8.274-8.12-12.149-19.739-13.886-30.321
			c-0.036-0.338-0.089-0.671-0.157-0.997c-0.942-6.174-1.174-11.942-1.144-16.38c11.878,0.24,33.419,2.638,46.818,15.781
			c13.457,13.208,15.786,35.013,15.968,46.945C402.044,492.066,379.949,490.133,366.537,476.968z"/>
	</g>
</g>
<g>
	<g>
		<path d="M204.429,392.748H131.08c-5.519,0-9.994,4.475-9.994,9.994c0,5.518,4.474,9.994,9.994,9.994h73.349
			c5.519,0,9.994-4.475,9.994-9.994C214.423,397.224,209.948,392.748,204.429,392.748z"/>
	</g>
</g>
<g>
	<g>
		<path d="M93.674,395.677c-1.859-1.86-4.437-2.928-7.065-2.928s-5.207,1.069-7.065,2.928c-1.859,1.859-2.928,4.437-2.928,7.065
			c0,2.628,1.069,5.207,2.928,7.064c1.859,1.86,4.437,2.929,7.065,2.929s5.207-1.069,7.065-2.929
			c1.859-1.858,2.928-4.436,2.928-7.064C96.602,400.114,95.533,397.536,93.674,395.677z"/>
	</g>
</g>
<g>
</g>
<g>
</g>
<g>
</g>
<g>
</g>
<g>
</g>
<g>
</g>
<g>
</g>
<g>
</g>
<g>
</g>
<g>
</g>
<g>
</g>
<g>
</g>
<g>
</g>
<g>
</g>
<g>
</g>
</svg>
