<?xml version="1.0" encoding="iso-8859-1"?>
<!-- Generator: Adobe Illustrator 19.0.0, SVG Export Plug-In . SVG Version: 6.00 Build 0)  -->
<svg version="1.1" id="Capa_1" xmlns="http://www.w3.org/2000/svg" xmlns:xlink="http://www.w3.org/1999/xlink" x="0px" y="0px"
	 viewBox="0 0 506.161 506.161" style="enable-background:new 0 0 506.161 506.161;" xml:space="preserve">
<g>
	<g>
		<path d="M498.584,52.501c-6.356-9.149-16.119-15.362-27.098-17.246L306.158,6.132c-10.956-1.948-22.237,0.542-31.356,6.921
			c-9.118,6.379-15.325,16.123-17.251,27.083l-4.633,26.29l-13.769-37.827c-7.947-21.76-32.009-32.98-53.787-25.082L27.616,60.935
			C17.155,64.738,8.634,72.543,3.93,82.631c-4.704,10.088-5.206,21.632-1.396,32.091l66.023,181.39l0.002,0.016l0.01,0.018
			l66.023,181.392c3.789,10.472,11.592,19.004,21.685,23.711s21.645,5.2,32.102,1.371l73.98-26.927l127.496,22.464
			c22.839,3.974,44.59-11.27,48.648-34.094l66.983-380.197C507.486,72.908,504.999,61.607,498.584,52.501z M18.305,108.981
			c-2.303-6.272-1.999-13.205,0.845-19.25c2.804-6.066,7.919-10.756,14.205-13.025l157.746-57.41
			c6.275-2.286,13.202-1.985,19.256,0.837c6.054,2.822,10.738,7.932,13.023,14.208l63.16,173.524L81.463,282.503L18.305,108.981z
			 M182.642,486.845c-6.276,2.286-13.202,1.985-19.255-0.837s-10.738-7.932-13.023-14.208l-63.16-173.527l157.178-57.206
			c0.094-0.037,0.191-0.061,0.283-0.102l47.615-17.329l63.158,173.521c4.736,13.071-1.999,27.509-15.057,32.279L182.642,486.845z
			 M421.978,461.132c-2.479,13.684-15.512,22.822-29.221,20.488l-98.841-17.413l52.202-19c21.76-7.947,32.983-32.007,25.09-53.787
			l-49.286-135.41l132.091,23.293L421.978,461.132z M488.961,80.927l-32.037,181.842l-141.633-24.977L264.398,97.966l9.686-54.928
			c1.159-6.566,4.88-12.403,10.344-16.224c5.464-3.822,12.222-5.316,18.788-4.153l165.369,29.131
			c6.574,1.145,12.421,4.863,16.245,10.331C488.654,67.592,490.141,74.359,488.961,80.927z"/>
	</g>
</g>
<g>
	<g>
		<path d="M316.871,42.083c-8.86-1.564-17.881,1.718-23.665,8.609s-7.453,16.344-4.377,24.799
			c3.076,8.455,10.428,14.627,19.288,16.19c1.461,0.257,2.942,0.388,4.426,0.389c13.048-0.026,23.916-10.013,25.042-23.013
			S329.72,44.351,316.871,42.083z M320.756,68.341c-0.375,2.197-1.619,4.149-3.451,5.418c-3.281,2.298-7.728,1.959-10.622-0.81
			c-2.894-2.769-3.429-7.198-1.277-10.576c2.152-3.379,6.391-4.767,10.124-3.315C319.263,60.51,321.451,64.397,320.756,68.341z"/>
	</g>
</g>
<g>
	<g>
		<path d="M370.035,111.12c-8.859-1.562-17.879,1.72-23.661,8.611c-5.782,6.891-7.45,16.344-4.373,24.797
			s10.429,14.623,19.288,16.186c6.576,1.164,13.346-0.334,18.818-4.163c5.472-3.83,9.197-9.677,10.355-16.255l0.008-0.008
			C392.858,126.596,383.719,113.552,370.035,111.12z M372.102,141.323c-1.933,2.298-4.947,3.389-7.903,2.859
			c-4.28-0.759-7.272-4.659-6.897-8.99s3.993-7.658,8.34-7.67c0.495,0.001,0.988,0.045,1.475,0.131
			c2.959,0.515,5.417,2.571,6.446,5.393C374.592,135.868,374.035,139.024,372.102,141.323z"/>
	</g>
</g>
<g>
	<g>
		<path d="M449.125,65.403c-8.86-1.562-17.88,1.721-23.663,8.612c-5.783,6.892-7.45,16.345-4.373,24.799
			c3.077,8.454,10.43,14.624,19.29,16.187c1.461,0.257,2.942,0.388,4.426,0.389c13.047-0.029,23.912-10.018,25.036-23.017
			C470.964,79.374,461.974,67.67,449.125,65.403z M453.018,91.653l-0.008,0.008c-0.803,4.562-5.151,7.609-9.713,6.807
			c-4.565-0.804-7.615-5.156-6.811-9.721c0.804-4.565,5.156-7.615,9.721-6.811C450.77,82.741,453.818,87.09,453.018,91.653z"/>
	</g>
</g>
<g>
	<g>
		<path d="M427.264,189.395c-10.03-1.772-20.139,2.673-25.614,11.262c-5.475,8.589-5.237,19.629,0.603,27.974
			c5.84,8.345,16.131,12.35,26.076,10.148c9.944-2.202,17.583-10.178,19.354-20.208l0.008-0.008
			C450.084,204.872,440.948,191.826,427.264,189.395z M431.101,215.644c-0.804,4.544-5.124,7.586-9.673,6.812
			c-4.287-0.754-7.286-4.661-6.906-8.997s4.012-7.662,8.365-7.659c0.492,0,0.983,0.042,1.467,0.127
			C428.891,206.761,431.905,211.102,431.101,215.644z"/>
	</g>
</g>
<g>
	<g>
		<path d="M407.256,287.313c-10.031-1.773-20.142,2.672-25.618,11.262c-5.476,8.589-5.238,19.632,0.602,27.978
			c5.841,8.346,16.134,12.351,26.079,10.149c9.945-2.203,17.585-10.18,19.355-20.212l0.008-0.008
			C430.072,302.791,420.938,289.748,407.256,287.313z M411.141,313.571c-0.814,4.558-5.159,7.601-9.721,6.807
			c-3.344-0.589-6.004-3.134-6.74-6.449c-0.735-3.315,0.599-6.747,3.38-8.694c2.781-1.948,6.462-2.028,9.326-0.203
			S411.732,310.227,411.141,313.571z"/>
	</g>
</g>
<g>
	<g>
		<path d="M120.986,208.071c-9.007-6.299-21.057-6.03-29.774,0.665c-8.717,6.695-12.086,18.266-8.324,28.593
			c3.638,9.945,13.098,16.561,23.688,16.566c10.99-0.01,20.705-7.146,24.002-17.63C133.875,225.781,129.993,214.369,120.986,208.071
			z M109.421,236.6c-3.191,1.162-6.767,0.288-9.061-2.215c-2.296-2.503-2.857-6.142-1.423-9.22c0.938-2.02,2.643-3.582,4.738-4.34
			c0.922-0.335,1.896-0.507,2.877-0.508c4.074,0,7.559,2.926,8.266,6.938C115.525,231.267,113.249,235.207,109.421,236.6z"/>
	</g>
</g>
<g>
	<g>
		<path d="M208.236,47.463c-8.116-8.854-21.356-10.742-31.623-4.51c-10.267,6.232-14.703,18.849-10.595,30.135
			c2.279,6.28,6.966,11.393,13.025,14.208c10.887,5.073,23.841,1.749,30.941-7.938C217.084,69.67,216.352,56.317,208.236,47.463z
			 M195.348,70.664c-2.504,2.293-6.143,2.851-9.22,1.414c-3.076-1.437-4.983-4.586-4.832-7.978c0.153-3.393,2.334-6.36,5.526-7.517
			c2.089-0.76,4.393-0.658,6.407,0.282c2.014,0.94,3.572,2.642,4.33,4.731l0.008,0.008
			C198.728,64.795,197.852,68.371,195.348,70.664z"/>
	</g>
</g>
<g>
	<g>
		<path d="M82.051,93.39c-8.116-8.854-21.356-10.742-31.623-4.51c-10.267,6.232-14.703,18.849-10.595,30.135
			c2.278,6.281,6.966,11.395,13.025,14.209c10.887,5.073,23.841,1.749,30.941-7.939C90.899,115.597,90.167,102.244,82.051,93.39z
			 M69.162,116.592c-2.504,2.293-6.143,2.851-9.22,1.414s-4.983-4.586-4.832-7.978c0.154-3.393,2.334-6.36,5.526-7.517
			c2.089-0.76,4.393-0.658,6.407,0.282c2.014,0.94,3.572,2.642,4.33,4.731l0.008,0.008
			C72.542,110.723,71.666,114.299,69.162,116.592z"/>
	</g>
</g>
<g>
	<g>
		<path d="M164.658,314.747c-4.111-11.282-15.619-18.089-27.487-16.259c-11.868,1.83-20.79,11.789-21.311,23.785
			c-0.521,11.997,7.505,22.691,19.169,25.543s23.719-2.932,28.793-13.815C166.658,327.952,166.959,321.02,164.658,314.747z
			 M148.609,326.907c-1.604,3.446-5.323,5.384-9.067,4.726c-3.744-0.659-6.578-3.75-6.91-7.537s1.921-7.324,5.493-8.624
			c0.922-0.335,1.896-0.507,2.877-0.508c2.868,0.003,5.536,1.468,7.076,3.887C149.619,321.27,149.819,324.307,148.609,326.907z"/>
	</g>
</g>
<g>
	<g>
		<path d="M290.855,268.813c-3.485-9.569-12.391-16.096-22.565-16.538c-10.174-0.442-19.613,5.288-23.915,14.519
			s-2.62,20.144,4.262,27.65c6.882,7.507,17.608,10.129,27.177,6.643C288.87,296.318,295.6,281.878,290.855,268.813z
			 M270.068,285.317c-4.358,1.582-9.174-0.665-10.762-5.02c-1.583-4.357,0.664-9.172,5.021-10.757
			c4.356-1.584,9.173,0.662,10.758,5.018C276.67,278.914,274.424,283.731,270.068,285.317z"/>
	</g>
</g>
<g>
	<g>
		<path d="M250.717,354.874c-3.485-9.569-12.391-16.096-22.565-16.538c-10.174-0.442-19.613,5.288-23.915,14.519
			c-4.302,9.231-2.62,20.144,4.262,27.65c6.882,7.507,17.608,10.129,27.177,6.643C248.732,382.38,255.462,367.939,250.717,354.874z
			 M229.93,371.378c-4.358,1.582-9.174-0.665-10.762-5.02c-1.583-4.357,0.664-9.172,5.021-10.757
			c4.357-1.585,9.173,0.662,10.758,5.018C236.532,364.975,234.285,369.792,229.93,371.378z"/>
	</g>
</g>
<g>
	<g>
		<path d="M207.714,433.053c-2.27-6.281-6.956-11.396-13.015-14.208c-10.892-5.085-23.859-1.766-30.97,7.925
			c-7.111,9.692-6.384,23.057,1.735,31.92c8.119,8.864,21.37,10.757,31.646,4.521C207.387,456.975,211.826,444.348,207.714,433.053z
			 M191.666,445.214c-1.691,3.629-5.71,5.559-9.599,4.609s-6.566-4.516-6.392-8.516c0.174-4,3.149-7.32,7.107-7.93
			c3.957-0.609,7.794,1.661,9.163,5.424C192.708,440.89,192.608,443.198,191.666,445.214z"/>
	</g>
</g>
<g>
	<g>
		<path d="M333.913,387.124c-2.248-6.302-6.926-11.441-12.99-14.269c-6.064-2.828-13.009-3.109-19.281-0.78
			c-9.573,3.482-16.106,12.388-16.552,22.565s5.283,19.62,14.516,23.926c9.232,4.305,20.149,2.625,27.659-4.258
			S337.399,396.696,333.913,387.124z M317.863,399.284c-1.604,3.446-5.323,5.384-9.067,4.726c-3.744-0.659-6.578-3.75-6.91-7.537
			c-0.332-3.787,1.921-7.324,5.493-8.624c0.922-0.335,1.896-0.507,2.877-0.508c2.868,0.003,5.536,1.468,7.076,3.887
			C318.873,393.646,319.073,396.684,317.863,399.284z"/>
	</g>
</g>
<g>
	<g>
		<path d="M256.405,174.17c-4.756-13.067-19.204-19.805-32.272-15.049c-6.298,2.254-11.434,6.934-14.261,12.996
			c-2.826,6.062-3.11,13.004-0.788,19.278c4.757,13.067,19.206,19.804,32.273,15.047
			C254.424,201.686,261.161,187.237,256.405,174.17z M234.017,191.072c-3.957,0.61-7.794-1.661-9.163-5.424
			c-0.765-2.089-0.665-4.398,0.279-6.413c1.691-3.629,5.71-5.559,9.599-4.609c3.889,0.95,6.566,4.516,6.392,8.516
			S237.975,190.462,234.017,191.072z"/>
	</g>
</g>
<g>
</g>
<g>
</g>
<g>
</g>
<g>
</g>
<g>
</g>
<g>
</g>
<g>
</g>
<g>
</g>
<g>
</g>
<g>
</g>
<g>
</g>
<g>
</g>
<g>
</g>
<g>
</g>
<g>
</g>
</svg>
